<svg width="91" height="27" viewBox="0 0 91 27" xmlns="http://www.w3.org/2000/svg">
    <title>Rectangle 1 + Imported Layers</title>
    <g fill="none" fill-rule="evenodd">
        <rect stroke="gray" stroke-width="1.064" x=".532" y=".532" width="89.936" height="25.936" rx="5.318"></rect>
        <path d="M16.766 8.774c1.715 0 2.812 1.695 2.812 1.695s-1.673.927-1.673 2.94c0 2.389 2.102 3.084 2.102 3.084s-1.66 4.019-3.523 4.019c-1.047 0-1.117-.616-2.51-.616-1.209 0-1.617.616-2.538.616-1.758 0-4.029-3.918-4.029-7.103 0-3.31 2.3-4.635 3.74-4.635 1.266 0 1.794.76 2.813.76.858 0 1.533-.76 2.806-.76zM16.47 5.4c.252 1.622-1.189 3.628-2.911 3.563-.254-2.064 1.603-3.454 2.91-3.563zm13.005 4.22h1.17l3.11 8.123h-1.17l-.87-2.446H28.35l-.891 2.446h-1.082l3.1-8.123zm-.791 4.767h2.697l-1.326-3.789h-.023l-1.348 3.789zm5.73-2.526h.947v.796h.022c.156-.326.401-.563.736-.71a2.698 2.698 0 0 1 1.103-.223c.446 0 .834.084 1.165.25.33.168.606.393.825.678.22.284.384.612.496.984.111.371.167.766.167 1.183 0 .417-.054.812-.161 1.183a2.807 2.807 0 0 1-.491.973 2.32 2.32 0 0 1-.825.654 2.63 2.63 0 0 1-1.154.24 2.792 2.792 0 0 1-.992-.194 2.015 2.015 0 0 1-.484-.28 1.547 1.547 0 0 1-.385-.437h-.022v3.026h-.948v-8.123zm4.458 2.89c0-.273-.035-.54-.106-.802a2.185 2.185 0 0 0-.323-.7 1.594 1.594 0 0 0-.558-.49 1.664 1.664 0 0 0-.797-.181c-.32 0-.59.064-.813.193a1.643 1.643 0 0 0-.546.506 2.139 2.139 0 0 0-.307.711 3.478 3.478 0 0 0 .006 1.644c.066.27.172.507.317.712.145.204.333.37.563.494.23.126.51.188.836.188.327 0 .6-.064.82-.193.219-.13.395-.3.529-.512.134-.213.23-.455.29-.728.06-.273.089-.554.089-.842zm2.151-2.89h.948v.796h.022c.156-.326.401-.563.736-.71a2.698 2.698 0 0 1 1.103-.223c.446 0 .834.084 1.165.25.33.168.606.393.825.678.22.284.385.612.496.984.111.371.167.766.167 1.183 0 .417-.054.812-.161 1.183a2.807 2.807 0 0 1-.49.973 2.32 2.32 0 0 1-.826.654 2.63 2.63 0 0 1-1.153.24 2.792 2.792 0 0 1-.993-.194 2.015 2.015 0 0 1-.484-.28 1.547 1.547 0 0 1-.385-.437h-.022v3.026h-.948v-8.123zm4.459 2.89c0-.273-.035-.54-.106-.802a2.185 2.185 0 0 0-.323-.7 1.594 1.594 0 0 0-.557-.49 1.664 1.664 0 0 0-.797-.181c-.32 0-.591.064-.814.193a1.643 1.643 0 0 0-.546.506 2.139 2.139 0 0 0-.307.711 3.478 3.478 0 0 0 .006 1.644c.067.27.172.507.317.712.145.204.333.37.563.494.23.126.51.188.836.188.327 0 .6-.064.82-.193.219-.13.395-.3.529-.512.134-.213.23-.455.29-.728.06-.273.089-.554.089-.842zm9.976-2.754c-.059-.584-.265-1.006-.618-1.268s-.805-.393-1.355-.393c-.223 0-.442.023-.657.069a1.726 1.726 0 0 0-.574.227 1.184 1.184 0 0 0-.402.427c-.1.178-.15.4-.15.665 0 .25.072.454.217.61.145.155.338.282.58.38a4.8 4.8 0 0 0 .82.245c.304.064.614.134.93.21.316.076.626.165.93.268.305.102.579.24.82.415.242.174.435.394.58.66.145.265.217.599.217 1.001 0 .432-.095.802-.284 1.11-.19.306-.433.557-.73.75-.298.194-.63.334-.998.421a4.745 4.745 0 0 1-2.363-.04 3.099 3.099 0 0 1-1.048-.517 2.444 2.444 0 0 1-.713-.888c-.175-.36-.262-.787-.262-1.28h1.003c0 .342.065.636.195.882.13.247.301.45.513.609.212.159.459.277.741.352.282.076.572.114.87.114.237 0 .477-.023.718-.068a2.09 2.09 0 0 0 .653-.233c.193-.11.349-.26.468-.45.119-.19.178-.432.178-.728 0-.28-.072-.508-.217-.682a1.6 1.6 0 0 0-.58-.427c-.241-.11-.515-.2-.82-.267l-.93-.211a12.456 12.456 0 0 1-.93-.25 3.336 3.336 0 0 1-.82-.376 1.782 1.782 0 0 1-.58-.603c-.145-.246-.217-.555-.217-.927 0-.41.082-.764.245-1.064.164-.3.381-.546.652-.74a2.9 2.9 0 0 1 .925-.432c.346-.094.7-.142 1.065-.142.409 0 .788.05 1.137.148.35.099.656.254.92.467.263.212.471.48.624.802.152.322.236.707.25 1.154H55.46zm3.78-.136h1.147v.853h-1.148v3.652c0 .114.01.205.028.273a.281.281 0 0 0 .106.16.462.462 0 0 0 .217.074c.093.011.214.017.363.017h.434v.853h-.724c-.245 0-.455-.017-.63-.051a.916.916 0 0 1-.424-.188.804.804 0 0 1-.24-.387 2.278 2.278 0 0 1-.077-.66v-3.743h-.981v-.853h.98v-1.764h.948v1.764zm1.883 2.947c0-.433.06-.837.178-1.212.12-.375.298-.702.535-.978.238-.277.532-.495.881-.655.35-.159.75-.239 1.204-.239.46 0 .864.08 1.21.24.345.159.637.377.874.654.238.276.416.603.535.978.12.375.179.78.179 1.212 0 .432-.06.834-.179 1.206a2.769 2.769 0 0 1-.535.972c-.237.277-.53.493-.875.649-.345.155-.748.233-1.21.233-.452 0-.854-.078-1.203-.233a2.464 2.464 0 0 1-.88-.649 2.769 2.769 0 0 1-.536-.972 3.937 3.937 0 0 1-.178-1.206zm1.003 0c0 .356.047.673.14.95.092.276.22.508.384.694a1.67 1.67 0 0 0 1.27.574 1.68 1.68 0 0 0 1.272-.574c.163-.186.291-.418.384-.694.093-.277.14-.594.14-.95 0-.357-.047-.674-.14-.95a2.062 2.062 0 0 0-.384-.7 1.64 1.64 0 0 0-1.271-.58 1.64 1.64 0 0 0-1.27.58c-.164.19-.293.423-.385.7-.093.276-.14.593-.14.95zM67.8 11.86h.892v1.24h.022c.23-.478.513-.83.847-1.058.335-.228.758-.334 1.27-.319v1.024c-.378 0-.701.053-.969.16a1.53 1.53 0 0 0-.646.466 1.946 1.946 0 0 0-.357.745 4.1 4.1 0 0 0-.112 1.007v2.617H67.8V11.86zm8.46 4.016c-.126.66-.405 1.157-.836 1.49-.43.334-.973.501-1.627.501-.46 0-.86-.076-1.198-.227a2.366 2.366 0 0 1-.853-.638c-.23-.273-.403-.599-.518-.978a4.804 4.804 0 0 1-.195-1.24c0-.448.066-.857.2-1.229a2.95 2.95 0 0 1 .563-.967c.242-.273.528-.485.858-.637.331-.152.693-.228 1.087-.228.513 0 .938.109 1.277.325.338.216.609.49.813.825a3.3 3.3 0 0 1 .424 1.092c.078.394.11.77.095 1.126h-4.314a2.38 2.38 0 0 0 .089.734 1.597 1.597 0 0 0 .892 1.041c.23.106.501.16.813.16.402 0 .73-.096.987-.285.256-.19.425-.478.507-.865h.936zm-.914-1.638a2.012 2.012 0 0 0-.15-.649 1.66 1.66 0 0 0-.346-.529 1.592 1.592 0 0 0-1.165-.484 1.62 1.62 0 0 0-.663.132 1.531 1.531 0 0 0-.507.358 1.719 1.719 0 0 0-.334.529 2.05 2.05 0 0 0-.145.643h3.31z"
              fill="gray"></path>
    </g>
</svg>