<?xml version="1.0" encoding="UTF-8"?>
<svg width="480px" height="513px" viewBox="0 0 480 513" version="1.1" xmlns="http://www.w3.org/2000/svg" xmlns:xlink="http://www.w3.org/1999/xlink">
    <!-- Generator: Sketch 41 (35326) - http://www.bohemiancoding.com/sketch -->
    <title>competition-B</title>
    <desc>Created with Sketch.</desc>
    <defs></defs>
    <g id="Page-1" stroke="none" stroke-width="1">
        <g id="competition">
            <path d="M477.563,431.87 L418.847,305.957 C386.426,353.164 335.805,386.779 277.208,396.972 L326.36,502.373 C332.644,515.86 352.092,514.96 357.153,501.032 L382.346,431.828 L387.538,429.407 L456.743,454.6 C470.63,459.696 483.839,445.304 477.563,431.87 Z" id="Shape"></path>
            <path d="M240.001,0 C138.815,0 56.485,82.325 56.485,183.516 C56.485,284.707 138.816,367.032 240.001,367.032 C341.187,367.032 423.517,284.707 423.517,183.516 C423.517,82.325 341.188,0 240.001,0 Z M142,312.187726 L142,55 L226.257243,55 C258.170348,55 283.046888,60.9173782 300.887609,72.7523121 C318.728331,84.587246 327.648557,102.221622 327.648557,125.655969 C327.648557,137.903064 324.822347,148.766311 319.169841,158.246034 C313.517335,167.725757 304.685428,174.879603 292.673853,179.707785 C307.982723,183.00508 319.317004,189.835088 326.677038,200.198015 C334.037071,210.560943 337.717033,222.513458 337.717033,236.055919 C337.717033,261.138914 329.297281,280.098076 312.457524,292.933974 C295.617767,305.769873 271.47722,312.187726 240.035156,312.187726 L142,312.187726 Z M201.704293,201.787775 L201.704293,266.261346 L240.035156,266.261346 C252.753294,266.261346 262.291755,263.758972 268.650824,258.754149 C275.009893,253.749327 278.189379,246.065567 278.189379,235.70264 C278.189379,224.75091 275.392609,216.448916 269.798983,210.796411 C264.205358,205.143905 254.990734,202.141056 242.154835,201.787775 L201.704293,201.787775 Z M201.704293,162.220432 L225.197403,162.220432 C239.564188,162.220432 250.280237,159.718058 257.345869,154.713236 C264.411501,149.708413 267.944264,142.260171 267.944264,132.368286 C267.944264,121.416556 264.52926,113.438399 257.699149,108.433576 C250.869037,103.428753 240.388507,100.92638 226.257243,100.92638 L201.704293,100.92638 L201.704293,162.220432 Z" id="Combined-Shape"></path>
            <path d="M61.156,305.957 L2.44,431.87 C-3.865,445.367 9.463,459.68 23.261,454.597 L92.465,429.404 L97.657,431.825 L122.85,501.03 C127.901,514.929 147.346,515.887 153.643,502.372 L202.795,396.971 C144.198,386.779 93.578,353.165 61.156,305.957 Z" id="Shape"></path>
        </g>
    </g>
</svg>