<?xml version="1.0" encoding="UTF-8"?>
<svg width="480px" height="513px" viewBox="0 0 480 513" version="1.1" xmlns="http://www.w3.org/2000/svg" xmlns:xlink="http://www.w3.org/1999/xlink">
    <!-- Generator: Sketch 41 (35326) - http://www.bohemiancoding.com/sketch -->
    <g id="Page-1" stroke="none" stroke-width="1">
        <g id="competition">
            <path d="M477.563,431.87 L418.847,305.957 C386.426,353.164 335.805,386.779 277.208,396.972 L326.36,502.373 C332.644,515.86 352.092,514.96 357.153,501.032 L382.346,431.828 L387.538,429.407 L456.743,454.6 C470.63,459.696 483.839,445.304 477.563,431.87 Z" id="Shape"></path>
            <path d="M240.001,0 C138.815,0 56.485,82.325 56.485,183.516 C56.485,284.707 138.816,367.032 240.001,367.032 C341.187,367.032 423.517,284.707 423.517,183.516 C423.517,82.325 341.188,0 240.001,0 Z M277.494505,262.241758 L201.362637,262.241758 L186.593407,312 L124,312 L207.516484,56 L239.340659,56 L239.340659,56.1758242 L239.516484,56 L271.340659,56 L355.032967,312 L292.43956,312 L277.494505,262.241758 Z M215.076923,216.527473 L263.78022,216.527473 L239.868132,137.054945 L238.813187,137.054945 L215.076923,216.527473 Z" id="Combined-Shape"></path>
            <path d="M61.156,305.957 L2.44,431.87 C-3.865,445.367 9.463,459.68 23.261,454.597 L92.465,429.404 L97.657,431.825 L122.85,501.03 C127.901,514.929 147.346,515.887 153.643,502.372 L202.795,396.971 C144.198,386.779 93.578,353.165 61.156,305.957 Z" id="Shape"></path>
        </g>
    </g>
</svg>