<?xml version="1.0" encoding="UTF-8"?>
<svg width="480px" height="513px" viewBox="0 0 480 513" version="1.1" xmlns="http://www.w3.org/2000/svg" xmlns:xlink="http://www.w3.org/1999/xlink">
    <!-- Generator: Sketch 41 (35326) - http://www.bohemiancoding.com/sketch -->
    <title>competition-ะก</title>
    <desc>Created with Sketch.</desc>
    <defs></defs>
    <g id="Page-1" stroke="none" stroke-width="1">
        <g id="competition">
            <path d="M477.563,431.87 L418.847,305.957 C386.426,353.164 335.805,386.779 277.208,396.972 L326.36,502.373 C332.644,515.86 352.092,514.96 357.153,501.032 L382.346,431.828 L387.538,429.407 L456.743,454.6 C470.63,459.696 483.839,445.304 477.563,431.87 Z" id="Shape"></path>
            <path d="M240.001,0 C138.815,0 56.485,82.325 56.485,183.516 C56.485,284.707 138.816,367.032 240.001,367.032 C341.187,367.032 423.517,284.707 423.517,183.516 C423.517,82.325 341.188,0 240.001,0 Z M337.674232,224.502003 L338.016021,225.52737 C338.471742,253.896003 330.468262,275.400016 314.00534,290.040053 C297.542419,304.680091 274.215549,312 244.024032,312 C213.262864,312 188.568851,302.600895 169.941255,283.802403 C151.313659,265.003911 142,240.395346 142,209.975968 L142,158.024032 C142,127.718585 150.971873,103.138501 168.915888,84.2830441 C186.859903,65.4275871 210.585522,56 240.093458,56 C271.652138,56 296.061329,63.3483911 313.321762,78.0453939 C330.582196,92.7423966 338.984426,114.103999 338.528705,142.130841 L338.016021,143.156208 L281.791722,143.156208 C281.791722,127.889554 278.544759,116.952414 272.050734,110.344459 C265.55671,103.736505 254.904391,100.432577 240.093458,100.432577 C227.105409,100.432577 217.136661,105.644808 210.186916,116.069426 C203.23717,126.494044 199.76235,140.364844 199.76235,157.682243 L199.76235,209.975968 C199.76235,227.407297 203.578956,241.363543 211.212283,251.845127 C218.84561,262.32671 229.78275,267.567423 244.024032,267.567423 C257.239941,267.567423 266.781457,264.263495 272.648865,257.655541 C278.516273,251.047586 281.449933,239.996517 281.449933,224.502003 L337.674232,224.502003 Z" id="Combined-Shape"></path>
            <path d="M61.156,305.957 L2.44,431.87 C-3.865,445.367 9.463,459.68 23.261,454.597 L92.465,429.404 L97.657,431.825 L122.85,501.03 C127.901,514.929 147.346,515.887 153.643,502.372 L202.795,396.971 C144.198,386.779 93.578,353.165 61.156,305.957 Z" id="Shape"></path>
        </g>
    </g>
</svg>