<?xml version="1.0" encoding="UTF-8" standalone="no"?>
<svg width="30px" height="30px" viewBox="0 0 30 30" version="1.1" xmlns="http://www.w3.org/2000/svg" xmlns:xlink="http://www.w3.org/1999/xlink">
    <!-- Generator: Sketch 39.1 (31720) - http://www.bohemiancoding.com/sketch -->
    <title>Shape</title>
    <desc>Created with Sketch.</desc>
    <defs></defs>
    <g id="LandingPage" stroke="none" stroke-width="1" fill="none" fill-rule="evenodd">
        <g id="Mobile-Portrait-Copy" transform="translate(-225.000000, -159.000000)" fill="#FFFFFF">
            <g id="Social" transform="translate(106.000000, 159.000000)">
                <g id="facebook-logo-button" transform="translate(119.000000, 0.000000)">
                    <g id="Capa_1">
                        <path d="M15,0 C6.72903408,0 0,6.72903408 0,15 C0,23.2703617 6.72903408,30 15,30 C23.2703617,30 30,23.2703617 30,15 C30,6.72903408 23.2715701,0 15,0 L15,0 Z M18.7303633,15.5280754 L16.2899782,15.5280754 L16.2899782,24.2262145 L12.6738097,24.2262145 L12.6738097,15.5280754 L10.9548457,15.5280754 L10.9548457,12.453879 L12.6738097,12.453879 L12.6738097,10.4654395 C12.6738097,9.04132764 13.3505196,6.81603964 16.3232095,6.81603964 L19.0028599,6.82631113 L19.0028599,9.81048095 L17.0579231,9.81048095 C16.7413196,9.81048095 16.2911867,9.96878273 16.2911867,10.6479094 L16.2911867,12.4544832 L19.0463627,12.4544832 L18.7303633,15.5280754 L18.7303633,15.5280754 Z" id="Shape"></path>
                    </g>
                </g>
            </g>
        </g>
    </g>
</svg>