<svg width="91" height="27" viewBox="0 0 91 27" xmlns="http://www.w3.org/2000/svg">
    <title>Rectangle 1 + Fill 1 + google play</title>
    <g fill="none" fill-rule="evenodd">
        <rect stroke="gray" stroke-width="1.064" x=".532" y=".532" width="89.936" height="25.936" rx="5.318"></rect>
        <path d="M60.268 16.162l-.607.591c-.14.08-.28.172-.42.238-.42.198-.85.247-1.23.247-.406 0-1.042-.027-1.69-.511-.9-.656-1.295-1.782-1.295-2.763 0-2.032 1.602-3.029 2.909-3.029.456 0 .925.118 1.307.367.634.433.798.996.889 1.297l-2.984 1.245-.977.079c.316 1.666 1.408 2.635 2.614 2.635.602 0 1.05-.203 1.46-.413 0 0 .082-.044.024.017zm-1.8-3.315l-2.31 1.036c-.014-.235-.04-.47-.04-.692 0-1.416.953-1.824 1.46-1.824.684 0 1.258.605 1.258 1.129 0 .182-.126.26-.368.351zm-4.439 3.213c0 .51.088.589.505.629.218.026.434.038.649.064l-.47.289h-2.236c.293-.393.343-.433.343-.694v-.293l-.004-7.793h-.988l.95-.473h1.816c-.394.236-.511.38-.562.838l-.003 7.433zm-3.469-4.482c.292.248.9.773.9 1.769 0 .97-.53 1.428-1.064 1.86-.164.171-.356.356-.356.642 0 .29.192.447.33.565l.458.365c.558.486 1.066.932 1.066 1.836 0 1.233-1.156 2.476-3.339 2.476-1.839 0-2.728-.904-2.728-1.874 0-.472.227-1.14.978-1.598.787-.497 1.853-.563 2.424-.602-.179-.238-.382-.487-.382-.893 0-.222.065-.355.127-.51-.139.013-.279.027-.406.027-1.346 0-2.107-1.037-2.107-2.06 0-.602.267-1.27.813-1.755.724-.616 1.587-.722 2.273-.722h2.615l-.813.474h-.789zm-.899 5.819c-.104-.014-.166-.014-.292-.014-.115 0-.8.025-1.332.21-.28.105-1.093.419-1.093 1.35 0 .929.877 1.599 2.233 1.599 1.219 0 1.866-.603 1.866-1.415 0-.669-.419-1.021-1.382-1.73zm.365-2.49c-.2.207-.543.366-.861.366-1.09 0-1.586-1.455-1.586-2.333 0-.34.064-.695.279-.968.202-.264.559-.434.888-.434 1.055 0 1.599 1.468 1.599 2.41 0 .238-.026.656-.319.958zm-7.334 2.304c-2.018 0-3.097-1.622-3.097-3.091 0-1.716 1.357-3.185 3.287-3.185 1.866 0 3.034 1.509 3.034 3.092 0 1.547-1.155 3.184-3.224 3.184zm1.587-1.06a1.606 1.606 0 0 1-1.295.667c-1.539 0-2.159-2.136-2.159-3.431 0-.566.089-1.142.585-1.6a1.738 1.738 0 0 1 1.144-.445c1.574 0 2.106 2.201 2.106 3.355 0 .51-.074 1.034-.381 1.454zm-8.342 1.06c-2.018 0-3.095-1.622-3.095-3.091 0-1.716 1.357-3.185 3.287-3.185 1.864 0 3.032 1.509 3.032 3.092 0 1.547-1.154 3.184-3.224 3.184zm1.588-1.06a1.607 1.607 0 0 1-1.294.667c-1.536 0-2.158-2.136-2.158-3.431 0-.566.088-1.142.584-1.6a1.73 1.73 0 0 1 1.142-.445c1.572 0 2.106 2.201 2.106 3.355 0 .51-.076 1.034-.38 1.454zm-5.49.605l-1.701.403c-.69.112-1.309.21-1.964.21-3.282 0-4.533-2.494-4.533-4.447 0-2.384 1.772-4.595 4.807-4.595.642 0 1.26.098 1.822.256.891.259 1.309.578 1.57.765l-.99.97-.416.095.297-.489c-.402-.405-1.142-1.155-2.546-1.155-1.877 0-3.293 1.474-3.293 3.625 0 2.31 1.617 4.484 4.21 4.484.762 0 1.154-.158 1.51-.305v-1.981l-1.796.1.952-.529h2.521l-.308.307c-.083.073-.094.098-.118.196a9.066 9.066 0 0 0-.024.592v1.498zm31.891-.538v3.338h-.642V11.06h.642v.968c.418-.626 1.182-1.121 2.07-1.121 1.592 0 2.664 1.247 2.664 3.221 0 1.961-1.072 3.234-2.664 3.234-.838 0-1.589-.446-2.07-1.145zm4.045-2.089c0 1.49-.751 2.635-2.083 2.635-.827 0-1.618-.696-1.962-1.282v-2.72c.344-.585 1.135-1.256 1.962-1.256 1.332 0 2.083 1.135 2.083 2.623zm1.566-5.413h.642v8.494h-.642V8.716zm7.846 10.29c.137.064.371.103.52.103.392 0 .666-.166.911-.752l.469-1.095-2.53-6.2h.717l2.17 5.372 2.147-5.373h.727l-3.085 7.502c-.32.773-.823 1.144-1.515 1.144-.208 0-.481-.038-.642-.089l.11-.611zm-1.876-1.814a11.752 11.752 0 0 1-.099-.558 3.864 3.864 0 0 1-.03-.48c-.22.334-.532.612-.93.83-.4.22-.778.329-1.297.329-.626 0-1.111-.16-1.458-.481-.345-.322-.519-.759-.519-1.31 0-.552.252-.999.754-1.341.501-.344 1.15-.515 1.952-.515h1.498v-.764c0-.44-.146-.786-.436-1.037-.29-.251-.7-.378-1.229-.378-.484 0-.876.116-1.175.342-.297.23-.446.517-.446.861h-.657l-.014-.033c-.023-.464.182-.872.62-1.224.435-.351 1.006-.528 1.708-.528.7 0 1.266.174 1.693.521.427.344.64.84.64 1.49v3.034a4.136 4.136 0 0 0 .164 1.242h-.739zm-2.278-.483c.546 0 .938-.126 1.338-.375.398-.247.669-.57.81-.96v-1.182h-1.504c-.575 0-1.05.132-1.425.397-.374.264-.564.583-.564.955 0 .35.12.631.36.844.24.214.567.32.985.32zM8.277 19.53c-.206-.058-.341-.267-.341-.591V8.244c0-.3.114-.502.294-.576l5.15 5.96-5.103 5.901zm.709-.228l6.198-3.585-1.51-1.748-4.688 5.333zm6.24-7.81l-6.11-3.536 4.567 5.32 1.544-1.784zm.416.24l2.394 1.385c.453.263.457.685 0 .95l-2.455 1.42-1.601-1.865 1.662-1.89z"
              fill="gray"></path>
    </g>
</svg>