<?xml version="1.0" encoding="UTF-8" standalone="no"?>
<svg width="419px" height="85px" viewBox="0 0 419 85" version="1.1" xmlns="http://www.w3.org/2000/svg" xmlns:xlink="http://www.w3.org/1999/xlink">
    <!-- Generator: Sketch 39.1 (31720) - http://www.bohemiancoding.com/sketch -->
    <title>Staminity/Logo/Typo/Mono</title>
    <desc>Created with Sketch.</desc>
    <defs></defs>
    <g id="Symbols" stroke="none" stroke-width="1" fill="none" fill-rule="evenodd">
        <g id="Staminity/Logo/Typo/Mono" fill="#FFFFFF">
            <g id="Staminity/Logo/Typo">
                <g id="Typography">
                    <path d="M22.016,63.241 C10.424,63.241 1.84,57.134 0.425,47.312 L12.283,47.312 C13.875,51.206 18.565,52.621 22.016,52.621 C26.706,52.621 30.246,51.206 30.246,48.551 C30.246,45.984 28.652,44.923 20.688,43.684 C12.547,42.444 1.662,40.233 1.662,30.057 C1.662,22.889 7.946,15.457 21.13,15.457 C31.573,15.457 39.36,21.12 40.864,29.703 L28.741,29.703 C28.033,27.58 25.466,25.898 21.13,25.898 C15.733,25.898 13.52,27.844 13.52,29.526 C13.52,31.916 16.883,32.712 22.546,33.597 C33.873,35.454 42.014,37.933 42.014,47.843 C42.015,56.869 33.697,63.241 22.016,63.241 L22.016,63.241 Z" id="Shape"></path>
                    <path d="M89.533,43.152 C89.533,54.656 81.746,63.24 69.534,63.24 C57.323,63.24 49.447,54.656 49.447,43.152 L49.447,5.013 L61.128,5.013 L61.128,16.606 L89.091,16.606 L89.091,27.579 L61.128,27.579 L61.128,43.773 C61.128,47.932 63.693,52.179 69.534,52.179 C75.287,52.179 77.852,47.932 77.852,43.773 L77.852,39.437 L89.533,39.437 L89.533,43.152 L89.533,43.152 Z" id="Shape"></path>
                    <path d="M142.362,62.178 L131.212,62.178 L131.212,57.311 C127.672,61.028 122.805,63.151 117.231,63.151 C105.373,63.151 95.551,52.887 95.551,39.437 C95.551,25.898 105.373,15.632 117.231,15.632 C122.805,15.632 127.672,17.757 131.212,21.472 L131.212,16.606 L142.362,16.606 L142.362,62.178 L142.362,62.178 Z M119,26.429 C112.541,26.429 107.319,32.092 107.319,39.525 C107.319,46.78 112.54,52.356 119,52.356 C125.461,52.356 130.681,46.603 130.681,39.525 C130.681,32.269 125.461,26.429 119,26.429 L119,26.429 Z" id="Shape"></path>
                    <path d="M222.977,62.187 L211.296,62.187 L211.296,35.552 C211.296,32.897 210.411,26.526 202.801,26.526 C197.58,26.526 193.952,30.42 193.952,35.552 L193.952,62.187 L182.183,62.187 L182.183,35.552 C182.183,32.897 181.387,26.526 173.688,26.526 C168.556,26.526 164.927,30.42 164.927,35.552 L164.927,62.187 L153.158,62.187 L153.158,16.615 L164.397,16.615 L164.397,21.039 C167.229,17.588 171.211,15.465 176.166,15.465 C181.829,15.465 186.607,17.853 189.793,21.924 C193.068,17.942 197.846,15.465 203.687,15.465 C215.898,15.465 222.978,23.606 222.978,35.552 L222.978,62.187 L222.977,62.187 Z" id="Shape"></path>
                    <rect id="Rectangle-path" x="233.507" y="0.766" width="11.679" height="10.883"></rect>
                    <rect id="Rectangle-path" x="233.507" y="16.69" width="11.679" height="45.572"></rect>
                    <path d="M296.865,62.178 L285.184,62.178 L285.184,35.543 C285.184,32.888 284.388,26.517 276.689,26.517 C271.468,26.517 267.84,30.411 267.84,35.543 L267.84,62.178 L256.159,62.178 L256.159,16.606 L267.309,16.606 L267.309,21.03 C270.23,17.579 274.212,15.456 279.079,15.456 C289.785,15.456 296.865,23.508 296.865,35.543 L296.865,62.178 L296.865,62.178 Z" id="Shape"></path>
                    <path d="M319.164,11.65 L307.485,11.65 L307.485,0.767 L319.164,0.767 L319.164,11.65 L319.164,11.65 Z M319.164,62.178 L307.485,62.178 L307.485,16.606 L319.164,16.606 L319.164,62.178 L319.164,62.178 Z" id="Shape"></path>
                    <path d="M369.604,43.152 C369.604,54.656 361.817,63.24 349.605,63.24 C337.394,63.24 329.518,54.656 329.518,43.152 L329.518,5.013 L341.199,5.013 L341.199,16.606 L369.162,16.606 L369.162,27.579 L341.199,27.579 L341.199,43.773 C341.199,47.932 343.764,52.179 349.605,52.179 C355.358,52.179 357.923,47.932 357.923,43.773 L357.923,39.437 L369.604,39.437 L369.604,43.152 L369.604,43.152 Z" id="Shape"></path>
                    <path d="M418.628,64.037 C418.628,76.337 410.575,84.478 398.364,84.478 C388.365,84.478 380.134,77.929 378.542,68.55 L390.665,68.55 C391.373,71.913 394.381,73.593 398.364,73.593 C404.734,73.593 406.947,69.081 406.947,64.833 L406.947,59.524 C404.203,61.824 400.665,63.241 396.506,63.241 C385.356,63.241 377.922,55.188 377.922,43.242 L377.922,16.607 L389.603,16.607 L389.603,43.242 C389.603,45.807 390.488,52.179 398.098,52.179 C403.319,52.179 406.947,48.374 406.947,43.242 L406.947,16.607 L418.628,16.607 L418.628,64.037 L418.628,64.037 Z" id="Shape"></path>
                </g>
            </g>
        </g>
    </g>
</svg>