<?xml version="1.0" encoding="UTF-8" standalone="no"?>
<svg width="121px" height="137px" viewBox="0 0 121 137" version="1.1" xmlns="http://www.w3.org/2000/svg" xmlns:xlink="http://www.w3.org/1999/xlink">
    <!-- Generator: Sketch 39.1 (31720) - http://www.bohemiancoding.com/sketch -->
    <title>Staminity/Logo/Mono</title>
    <desc>Created with Sketch.</desc>
    <defs></defs>
    <g id="Symbols" stroke="none" stroke-width="1" fill="none" fill-rule="evenodd">
        <g id="Staminity/Logo/Mono" fill="#FFFFFF">
            <g id="Logo-(monochrome)">
                <g id="Logotype">
                    <g id="Group">
                        <path d="M59.9974287,52.6439544 C71.5019334,52.6439544 83.006438,35.1917539 83.006438,23.5596716 C83.006438,22.5837809 83.006438,21.6600769 82.99547,20.7585522 C82.9328876,5.49264689 81.7357585,0.306596679 59.9974287,0.306596679 C38.2620023,0.306596679 37.0619699,5.49264689 37.0019683,20.7585522 C36.9884195,21.6600769 36.9884195,22.5837809 36.9884195,23.5596716 C36.9884195,35.1917539 48.4929241,52.6439544 59.9974287,52.6439544 L59.9974287,52.6439544 Z" id="Shape"></path>
                        <path d="M89.4662901,118.000581 C81.210583,117.824778 68.1766822,110.191499 60.106464,104.357029 C60.0371072,104.3068 59.917104,104.3068 59.8474247,104.357029 C51.7723676,110.191825 38.7404024,117.824778 30.4821145,118.000908 C30.3675953,118.003517 30.3156584,118.144421 30.4030801,118.221396 C32.5773325,120.133711 48.7213174,134.087448 59.8896839,136.670688 C59.9645246,136.687975 60.0416235,136.687975 60.1164642,136.670688 C65.6827438,135.383308 72.4706692,131.273608 78.1501776,127.23436 C83.8654935,123.170323 88.4575531,119.180979 89.5456471,118.221396 C89.6327462,118.144095 89.58339,118.003517 89.4662901,118.000581 L89.4662901,118.000581 Z" id="Shape"></path>
                        <path d="M89.8485585,52.5128354 L89.7888794,52.5128354 C66.7176105,52.5128354 39.9972105,86.1080035 30.1543637,86.1080035 L30.1501701,86.1080035 C28.321411,86.1080035 26.8365321,84.6373179 26.8365321,82.7879528 C26.8365321,80.8179061 28.568837,79.4731209 30.0288765,79.4731209 C31.779569,79.4731209 33.5718755,80.3831259 34.3147988,80.7660456 C34.3583484,80.7885511 34.4118982,80.7559344 34.4509315,80.7262532 L45.1247685,72.5867637 C47.4683803,70.7631658 51.6965591,67.3537455 56.803794,63.6390332 C56.8773444,63.5855419 56.8770218,63.4694265 56.8021811,63.4178922 C55.7744113,62.7078273 53.6214499,61.2978088 53.6214499,61.2978088 C53.6214499,61.2978088 41.3714412,52.6455853 30.1540412,52.6455853 C13.67166,52.6455853 0.23452247,66.0875665 0.23452247,82.7527268 C0.23452247,99.4221273 13.5481083,112.992292 30.000166,112.996532 L30.000166,112.992292 C53.2266005,112.992292 79.9499037,79.4727947 89.7885569,79.4727947 C91.6176386,79.4727947 93.1615513,80.8795516 93.1615513,82.9869145 C93.1615513,84.5590379 91.6366713,86.1683443 89.8079122,86.1683443 C89.7482332,86.1683443 89.4656449,86.1517098 89.3504805,86.1386631 C88.2872259,86.0310281 87.0323533,85.6040759 85.6416705,84.8900971 C85.5990887,84.8685701 85.543926,84.8649822 85.5055378,84.8949896 L74.8249264,93.0667696 C72.4813147,94.8946076 68.2534584,98.2942429 63.1407395,102.0145 C63.0681569,102.066034 63.0681569,102.172691 63.1407395,102.224225 C64.357224,103.0628 65.5866121,103.875281 66.8198713,104.653515 C66.8666467,104.683522 66.896325,104.704723 66.896325,104.704723 C74.4420129,109.470018 82.3112579,112.991966 89.7888794,112.991966 L89.8485585,112.996206 C106.33094,112.996206 119.691301,99.4218012 119.691301,82.7520745 C119.691301,66.0872403 106.33094,52.5128354 89.8485585,52.5128354 L89.8485585,52.5128354 Z" id="Shape"></path>
                    </g>
                </g>
            </g>
        </g>
    </g>
</svg>