<?xml version="1.0" encoding="iso-8859-1"?>
<!-- Generator: Adobe Illustrator 19.0.0, SVG Export Plug-In . SVG Version: 6.00 Build 0)  -->
<svg version="1.1" id="Layer_1" xmlns="http://www.w3.org/2000/svg" xmlns:xlink="http://www.w3.org/1999/xlink" x="0px" y="0px"
	 viewBox="0 0 496 496" style="enable-background:new 0 0 496 496;" xml:space="preserve">
<g>
	<g>
		<g>
			<path d="M339.216,228.864l13.304-22.176c2.368,0.784,4.848,1.312,7.48,1.312c4.072,0,7.848-1.112,11.208-2.912l30.68,25.568
				c-1.216,2.88-1.888,6.032-1.888,9.344c0,13.232,10.768,24,24,24s24-10.768,24-24c0-5.384-1.848-10.312-4.856-14.32l26.376-65.936
				c0.824,0.088,1.632,0.256,2.48,0.256c13.232,0,24-10.768,24-24s-10.768-24-24-24s-24,10.768-24,24
				c0,6.6,2.68,12.584,7.008,16.928l-25.504,63.768c-1.776-0.416-3.6-0.696-5.504-0.696c-4.072,0-7.848,1.112-11.208,2.912
				l-30.68-25.568c1.216-2.88,1.888-6.032,1.888-9.344c0-13.232-10.768-24-24-24s-24,10.768-24,24c0,4.72,1.416,9.096,3.784,12.816
				l-9.728,16.216l-23.64-40.84l-32.24,24.176L240,141.704V104h120V0H224v141.696L11.576,480H0v16h496v-16h-11.392L339.216,228.864z
				 M472,128c4.416,0,8,3.584,8,8s-3.584,8-8,8c-4.416,0-8-3.584-8-8S467.584,128,472,128z M424,232c4.416,0,8,3.584,8,8
				s-3.584,8-8,8c-4.416,0-8-3.584-8-8S419.584,232,424,232z M360,176c4.416,0,8,3.584,8,8s-3.584,8-8,8c-4.416,0-8-3.584-8-8
				S355.584,176,360,176z M240,16h104v72H240V16z M30.472,480l201.512-320.928l33.16,53.048l24,40l13.72-8.232l-20.288-33.808
				l19.024-14.264l19.048,32.904l-32.016,53.36c-5.328-2.792-10.856-5.12-16.624-6.752V256h-48v19.32
				c-6.576,1.856-12.888,4.496-18.888,7.848l-13.68-13.68l-33.936,33.936l13.68,13.68c-3.36,6-5.992,12.312-7.848,18.888H144v48
				h19.32c1.856,6.576,4.496,12.888,7.848,18.888l-13.68,13.68l33.936,33.936l13.68-13.68c6,3.36,12.312,5.992,18.888,7.848V464h48
				v-19.32c6.576-1.856,12.888-4.496,18.888-7.848l13.68,13.68l33.936-33.936l-13.68-13.68c3.36-6,5.992-12.312,7.856-18.888H352
				v-48h-19.32c-1.864-6.576-4.496-12.888-7.856-18.888l13.68-13.68l-27.52-27.52l18.824-31.368L466.128,480H30.472z
				 M308.048,320.336c5.136,7.752,8.672,16.248,10.496,25.256l1.304,6.408H336v16h-16.152l-1.304,6.416
				c-1.824,9.008-5.36,17.504-10.496,25.256l-3.616,5.456l11.448,11.448l-11.312,11.312L293.12,416.44l-5.456,3.616
				c-7.752,5.136-16.248,8.672-25.256,10.496L256,431.848V448h-16v-16.152l-6.416-1.304c-9.008-1.824-17.504-5.36-25.256-10.496
				l-5.456-3.616l-11.448,11.448l-11.312-11.312l11.448-11.448l-3.616-5.456c-5.136-7.752-8.672-16.248-10.496-25.256L176.152,368
				H160v-16h16.152l1.304-6.416c1.824-9.008,5.36-17.504,10.496-25.256l3.616-5.456l-11.448-11.448l11.312-11.312l11.448,11.448
				l5.456-3.616c7.752-5.136,16.248-8.672,25.256-10.496l6.408-1.296V272h16v16.152l6.416,1.304
				c6.28,1.272,12.288,3.424,17.992,6.32l-8.264,13.776C264.816,306.032,256.648,304,248,304c-30.872,0-56,25.128-56,56
				s25.128,56,56,56s56-25.128,56-56c0-16.472-7.2-31.264-18.56-41.52l10.848-18.088l8.28-8.272l11.312,11.312l-11.448,11.448
				L308.048,320.336z M255.48,337.312c-2.368-0.784-4.848-1.312-7.48-1.312c-13.232,0-24,10.768-24,24s10.768,24,24,24
				s24-10.768,24-24c0-4.72-1.416-9.096-3.784-12.816l8.76-14.6C283.768,339.76,288,349.368,288,360c0,22.056-17.944,40-40,40
				c-22.056,0-40-17.944-40-40c0-22.056,17.944-40,40-40c5.648,0,11,1.208,15.88,3.32L255.48,337.312z M256,360c0,4.416-3.584,8-8,8
				s-8-3.584-8-8c0-4.416,3.584-8,8-8S256,355.584,256,360z"/>
			<rect x="312" y="56" width="16" height="16"/>
			<rect x="280" y="56" width="16" height="16"/>
			<rect x="176" y="32" width="16" height="16"/>
			<rect x="176" y="64" width="16" height="16"/>
			<rect x="192" y="48" width="16" height="16"/>
			<rect x="160" y="48" width="16" height="16"/>
			<rect x="96" y="112" width="16" height="16"/>
			<rect x="96" y="144" width="16" height="16"/>
			<rect x="112" y="128" width="16" height="16"/>
			<rect x="80" y="128" width="16" height="16"/>
			<rect x="408" width="16" height="16"/>
			<rect x="408" y="32" width="16" height="16"/>
			<rect x="424" y="16" width="16" height="16"/>
			<rect x="392" y="16" width="16" height="16"/>
		</g>
	</g>
</g>
<g>
</g>
<g>
</g>
<g>
</g>
<g>
</g>
<g>
</g>
<g>
</g>
<g>
</g>
<g>
</g>
<g>
</g>
<g>
</g>
<g>
</g>
<g>
</g>
<g>
</g>
<g>
</g>
<g>
</g>
</svg>
