<?xml version="1.0" encoding="iso-8859-1"?>
<!-- Generator: Adobe Illustrator 19.0.0, SVG Export Plug-In . SVG Version: 6.00 Build 0)  -->
<svg version="1.1" id="Capa_1" xmlns="http://www.w3.org/2000/svg" xmlns:xlink="http://www.w3.org/1999/xlink" x="0px" y="0px"
	 viewBox="0 0 512 512" style="enable-background:new 0 0 512 512;" xml:space="preserve">
<g>
	<g>
		<path d="M504.067,122.758l-226-121c-4.424-2.344-9.697-2.344-14.121,0l-226,121c-4.096,2.19-7.939,7.868-7.939,13.242v197.763
			c-17.422,6.213-30,22.707-30,42.237v121c0,8.291,6.709,15,15,15h60c8.291,0,15-6.709,15-15V376c0-19.53-12.578-36.024-30-42.237
			V161.009l203.939,108.234c4.387,2.324,9.661,2.362,14.121,0l226-120C514.635,143.61,514.635,128.39,504.067,122.758z"/>
	</g>
</g>
<g>
	<g>
		<path d="M292.189,295.712c-13.608,7.198-29.354,6.877-42.29,0.044l-113.892-60.745V286c0,42.759,58.037,75,135,75
			s135-32.241,135-75v-50.995L292.189,295.712z"/>
	</g>
</g>
<g>
</g>
<g>
</g>
<g>
</g>
<g>
</g>
<g>
</g>
<g>
</g>
<g>
</g>
<g>
</g>
<g>
</g>
<g>
</g>
<g>
</g>
<g>
</g>
<g>
</g>
<g>
</g>
<g>
</g>
</svg>
