<svg fill="#000000" width="22" height="22" viewBox="0 0 24 24" version="1.1" xmlns="http://www.w3.org/2000/svg">
    <!-- Generator: Sketch 41 (35326) - http://www.bohemiancoding.com/sketch -->
    <g id="Symbols" transform="translate(1.000000, 1.000000)">
        <g id="triathlon">
            <path d="M6,22 C9.3137085,22 12,19.3137085 12,16 C12,12.6862915 9.3137085,10 6,10 C2.6862915,10 0,12.6862915 0,16 C0,19.3137085 2.6862915,22 6,22 Z M6,20 C3.790861,20 2,18.209139 2,16 C2,13.790861 3.790861,12 6,12 C8.209139,12 10,13.790861 10,16 C10,18.209139 8.209139,20 6,20 Z"
                  id="Oval-2"></path>
            <path d="M11,17 C14.3137085,17 17,14.3137085 17,11 C17,7.6862915 14.3137085,5 11,5 C7.6862915,5 5,7.6862915 5,11 C5,14.3137085 7.6862915,17 11,17 Z M11,15 C8.790861,15 7,13.209139 7,11 C7,8.790861 8.790861,7 11,7 C13.209139,7 15,8.790861 15,11 C15,13.209139 13.209139,15 11,15 Z"
                  id="Oval-2-Copy-2"></path>
            <path d="M16,12 C19.3137085,12 22,9.3137085 22,6 C22,2.6862915 19.3137085,0 16,0 C12.6862915,0 10,2.6862915 10,6 C10,9.3137085 12.6862915,12 16,12 Z M16,10 C13.790861,10 12,8.209139 12,6 C12,3.790861 13.790861,2 16,2 C18.209139,2 20,3.790861 20,6 C20,8.209139 18.209139,10 16,10 Z"
                  id="Oval-2-Copy"></path>
        </g>
    </g>
</svg>