<?xml version="1.0" encoding="UTF-8"?>
<svg width="22px" height="16px" viewBox="0 0 22 16" version="1.1" xmlns="http://www.w3.org/2000/svg" xmlns:xlink="http://www.w3.org/1999/xlink">
    <!-- Generator: Sketch 41 (35326) - http://www.bohemiancoding.com/sketch -->
    <title>ic_person_add_black_24px</title>
    <desc>Created with Sketch.</desc>
    <defs></defs>
    <g id="Page-1" stroke="none" stroke-width="1" fill="none" fill-rule="evenodd">
        <g id="ic_person_add_black_24px" transform="translate(-1.000000, -4.000000)">
            <polygon id="Shape" points="0 0 24 0 24 24 0 24"></polygon>
            <path d="M15,5.9 C16.16,5.9 17.1,6.84 17.1,8 C17.1,9.16 16.16,10.1 15,10.1 C13.84,10.1 12.9,9.16 12.9,8 C12.9,6.84 13.84,5.9 15,5.9 L15,5.9 Z M15,14.9 C17.97,14.9 21.1,16.36 21.1,17 L21.1,18.1 L8.9,18.1 L8.9,17 C8.9,16.36 12.03,14.9 15,14.9 L15,14.9 Z M15,4 C12.79,4 11,5.79 11,8 C11,10.21 12.79,12 15,12 C17.21,12 19,10.21 19,8 C19,5.79 17.21,4 15,4 Z M15,13 C12.33,13 7,14.34 7,17 L7,20 L23,20 L23,17 C23,14.34 17.67,13 15,13 Z" id="Shape" fill="currentColor"></path>
            <polygon id="Shape" fill="currentColor" points="6 10 6 7 4 7 4 10 1 10 1 12 4 12 4 15 6 15 6 12 9 12 9 10"></polygon>
        </g>
    </g>
</svg>