<?xml version="1.0" encoding="UTF-8"?>
<svg width="28px" height="16px" viewBox="0 0 28 16" version="1.1" xmlns="http://www.w3.org/2000/svg" xmlns:xlink="http://www.w3.org/1999/xlink">
    <!-- Generator: Sketch 41 (35326) - http://www.bohemiancoding.com/sketch -->
    <title>ic_group_add_black_24px</title>
    <desc>Created with Sketch.</desc>
    <defs></defs>
    <g id="Page-1" stroke="none" stroke-width="1" fill="none" fill-rule="evenodd">
        <g id="ic_group_add_black_24px" transform="translate(0.000000, -4.000000)">
            <polygon id="Shape" points="0 0 28 0 28 24 0 24"></polygon>
            <path d="M8,10 L5,10 L5,7 L3,7 L3,10 L0,10 L0,12 L3,12 L3,15 L5,15 L5,12 L8,12 L8,10 Z M20.2356667,11.5538462 C22.3255641,11.5538462 24,9.86682051 24,7.77692308 C24,5.68702564 22.3255641,4 20.2356667,4 C19.8327949,4 19.4425128,4.06294872 19.09,4.17625641 C19.8076154,5.19602564 20.2230769,6.42982051 20.2230769,7.77692308 C20.2230769,9.12402564 19.7950256,10.3452308 19.09,11.3775897 C19.4425128,11.4908974 19.8327949,11.5538462 20.2356667,11.5538462 Z M21.62,13 C22.8204132,14.0557851 23.6158678,15.4008264 23.6158678,17.107438 L23.6158678,20 L27.9547107,20 L27.9547107,17.107438 C27.9547107,14.8801653 24.5270248,13.5061983 21.62,13 Z" id="Shape" fill="currentColor"></path>
            <path d="M15,5.9 C16.16,5.9 17.1,6.84 17.1,8 C17.1,9.16 16.16,10.1 15,10.1 C13.84,10.1 12.9,9.16 12.9,8 C12.9,6.84 13.84,5.9 15,5.9 L15,5.9 Z M15,14.9 C17.97,14.9 21.1,16.36 21.1,17 L21.1,18.1 L8.9,18.1 L8.9,17 C8.9,16.36 12.03,14.9 15,14.9 L15,14.9 Z M15,4 C12.79,4 11,5.79 11,8 C11,10.21 12.79,12 15,12 C17.21,12 19,10.21 19,8 C19,5.79 17.21,4 15,4 Z M15,13 C12.33,13 7,14.34 7,17 L7,20 L23,20 L23,17 C23,14.34 17.67,13 15,13 Z" id="Shape" fill="currentColor"></path>
        </g>
    </g>
</svg>