<?xml version="1.0" encoding="iso-8859-1"?>
<!-- Generator: Adobe Illustrator 19.0.0, SVG Export Plug-In . SVG Version: 6.00 Build 0)  -->
<svg version="1.1" id="Layer_1" xmlns="http://www.w3.org/2000/svg" xmlns:xlink="http://www.w3.org/1999/xlink" x="0px" y="0px"
	 viewBox="0 0 512 512" style="enable-background:new 0 0 512 512;" xml:space="preserve">
<g>
	<g>
		<path d="M372.87,135.243v-35.069c18.412,0,33.391-14.979,33.391-33.391V33.391C406.261,14.979,391.281,0,372.87,0H139.13
			c-18.412,0-33.391,14.979-33.391,33.391v33.391c0,18.412,14.979,33.391,33.391,33.391v35.069
			c-38.056,7.757-66.783,41.488-66.783,81.801v244.87c0,27.618,22.469,50.087,50.087,50.087h267.13
			c27.618,0,50.087-22.469,50.087-50.087v-244.87C439.652,176.73,410.926,142.999,372.87,135.243z M139.13,33.391H372.87
			l0.021,33.39c0,0-0.007,0.001-0.021,0.001c-5.096,0-226.374,0-233.739,0V33.391z M406.261,461.913
			c0,9.206-7.49,16.696-16.696,16.696h-267.13c-9.206,0-16.696-7.49-16.696-16.696v-244.87c0-27.618,22.469-50.087,50.087-50.087
			c9.22,0,16.696-7.475,16.696-16.696v-50.087h166.957v50.087c0,9.22,7.475,16.696,16.696,16.696
			c27.618,0,50.087,22.469,50.087,50.087V461.913z"/>
	</g>
</g>
<g>
	<g>
		<path d="M356.174,244.87h-83.478v-83.478c0-16.875-22.332-23.057-31.012-8.589L141.51,319.758
			c-6.668,11.114,1.358,25.285,14.316,25.285h83.478v83.478c0,16.969,22.35,23.027,31.012,8.589L370.49,270.155
			C377.158,259.041,369.132,244.87,356.174,244.87z M272.696,368.245v-39.897c0-9.22-7.475-16.696-16.696-16.696h-70.686
			l53.99-89.984v39.897c0,9.22,7.475,16.696,16.696,16.696h70.686L272.696,368.245z"/>
	</g>
</g>
<g>
</g>
<g>
</g>
<g>
</g>
<g>
</g>
<g>
</g>
<g>
</g>
<g>
</g>
<g>
</g>
<g>
</g>
<g>
</g>
<g>
</g>
<g>
</g>
<g>
</g>
<g>
</g>
<g>
</g>
</svg>
