<?xml version="1.0" encoding="UTF-8" standalone="no"?>
<svg width="30px" height="30px" viewBox="0 0 30 30" version="1.1" xmlns="http://www.w3.org/2000/svg" xmlns:xlink="http://www.w3.org/1999/xlink">
    <!-- Generator: Sketch 39.1 (31720) - http://www.bohemiancoding.com/sketch -->
    <title>Shape</title>
    <desc>Created with Sketch.</desc>
    <defs></defs>
    <g id="LandingPage" stroke="none" stroke-width="1" fill="none" fill-rule="evenodd">
        <g id="Mobile-Portrait-Copy" transform="translate(-106.000000, -159.000000)" fill="#FFFFFF">
            <g id="Social" transform="translate(106.000000, 159.000000)">
                <g id="vk-social-logotype">
                    <g id="Capa_1">
                        <path d="M15,0 C6.71601023,0 0,6.71570332 0,15 C0,23.2842967 6.71601023,30 15,30 C23.2839898,30 30,23.2842967 30,15 C30,6.71570332 23.2839898,0 15,0 L15,0 Z M22.608798,16.6223018 C23.3079284,17.3051662 24.0475703,17.9478261 24.6751918,18.7012788 C24.9532481,19.034578 25.2153453,19.3792327 25.4148338,19.7668542 C25.6996419,20.3195908 25.4424552,20.9257289 24.9477238,20.9585678 L21.8746803,20.957954 C21.081023,21.0236317 20.4494118,20.7035294 19.9169309,20.1609207 C19.491867,19.728491 19.0974936,19.2665985 18.6880818,18.8194373 C18.5208184,18.6359079 18.3446547,18.4631202 18.1347315,18.3271611 C17.7158056,18.0546292 17.3518159,18.1381074 17.1118159,18.5757545 C16.8672123,19.0210742 16.8113555,19.514578 16.7880307,20.0102302 C16.754578,20.7348338 16.5360614,20.9241944 15.8090026,20.9582609 C14.2554476,21.0309974 12.7813811,20.7952941 11.4113555,20.0120716 C10.2027621,19.3212276 9.26731458,18.3461893 8.45217391,17.2422506 C6.86485934,15.0902302 5.64920716,12.7282864 4.55693095,10.2985166 C4.31109974,9.75130435 4.49094629,9.45851662 5.09462916,9.44716113 C6.09759591,9.42782609 7.10056266,9.43028133 8.10352941,9.44624041 C8.51171355,9.45268542 8.78179028,9.68624041 8.93861893,10.0714066 C9.48061381,11.4049105 10.1450639,12.6736573 10.9776982,13.8503325 C11.1995908,14.1636829 11.426087,14.4761125 11.7486445,14.6973913 C12.1046547,14.941688 12.3759591,14.8609719 12.5438363,14.4635294 C12.6512532,14.2109463 12.6975959,13.9408696 12.7209207,13.670179 C12.8007161,12.7430179 12.8102302,11.8161637 12.6721228,10.8926854 C12.5861893,10.3147826 12.2611765,9.94158568 11.6851151,9.83232737 C11.3917136,9.77677749 11.4346803,9.66813299 11.5773913,9.50056266 C11.8250639,9.21084399 12.0570844,9.03161125 12.5208184,9.03161125 L15.9928389,9.03099744 C16.5400512,9.13841432 16.6628133,9.38393862 16.7370844,9.93514066 L16.7401535,13.793555 C16.7337084,14.0068542 16.8472634,14.6390793 17.2302813,14.7787212 C17.5371867,14.88 17.7397442,14.6338619 17.9232737,14.4395908 C18.7559079,13.5560102 19.349156,12.5131458 19.8804092,11.4337596 C20.1148849,10.9577494 20.3171355,10.4651662 20.513555,9.9716624 C20.6596419,9.60675192 20.8867519,9.42721228 21.2986189,9.43335038 L24.642046,9.43734015 C24.7405627,9.43734015 24.8406138,9.43826087 24.9382097,9.45514066 C25.501688,9.55150895 25.6560614,9.79396419 25.4817391,10.3436317 C25.2073657,11.2072634 24.6742711,11.9266496 24.1531458,12.6478772 C23.594578,13.4200512 22.9988747,14.1652174 22.4458312,14.9407673 C21.9375959,15.6497187 21.9778005,16.0066496 22.608798,16.6223018 L22.608798,16.6223018 Z" id="Shape"></path>
                    </g>
                </g>
            </g>
        </g>
    </g>
</svg>