<?xml version="1.0" encoding="iso-8859-1"?>
<!-- Generator: Adobe Illustrator 19.0.0, SVG Export Plug-In . SVG Version: 6.00 Build 0)  -->
<svg version="1.1" id="Capa_1" xmlns="http://www.w3.org/2000/svg" xmlns:xlink="http://www.w3.org/1999/xlink" x="0px" y="0px"
	 viewBox="0 0 496.485 496.485" style="enable-background:new 0 0 496.485 496.485;" xml:space="preserve">
<circle style="fill:#E1E6E9;" cx="248.242" cy="248.242" r="248.242"/>
<g>
	<rect x="317.285" y="242.036" style="fill:#193651;" width="12.412" height="12.412"/>
	<rect x="352.194" y="242.036" style="fill:#193651;" width="12.412" height="12.412"/>
	<rect x="386.327" y="242.036" style="fill:#193651;" width="12.412" height="12.412"/>
</g>
<rect x="90.764" y="242.036" style="fill:#193651;" width="12.412" height="12.412"/>
<g>
	<rect x="124.897" y="242.036" style="fill:#193651;" width="12.412" height="12.412"/>
	<rect x="159.806" y="242.036" style="fill:#193651;" width="12.412" height="12.412"/>
	<rect x="238.933" y="321.164" style="fill:#193651;" width="12.412" height="12.412"/>
	<rect x="238.933" y="355.297" style="fill:#193651;" width="12.412" height="12.412"/>
	<rect x="238.933" y="390.206" style="fill:#193651;" width="12.412" height="12.412"/>
	<rect x="238.933" y="93.867" style="fill:#193651;" width="12.412" height="12.412"/>
	<rect x="238.933" y="128" style="fill:#193651;" width="12.412" height="12.412"/>
</g>
<rect x="238.933" y="162.909" style="fill:#193651;" width="12.412" height="12.412"/>
<path style="fill:#4FBF9F;" d="M430.545,49.648H286.255c-6.982,0-12.412,5.43-12.412,12.412v143.515
	c0,6.982,5.43,12.412,12.412,12.412H429.77c6.982,0,12.412-5.43,12.412-12.412V62.836C442.958,55.855,437.527,49.648,430.545,49.648
	z"/>
<path style="fill:#193651;" d="M430.545,43.442H286.255c-10.861,0-19.394,8.533-19.394,19.394v143.515
	c0,10.861,8.533,19.394,19.394,19.394H429.77c10.861,0,19.394-8.533,19.394-19.394V62.836
	C449.939,51.976,441.406,43.442,430.545,43.442z M436.752,206.352c0,3.879-3.103,6.206-6.206,6.206H287.03
	c-3.879,0-6.206-3.103-6.206-6.206V62.836c0-3.879,3.103-6.206,6.206-6.206h143.515c3.879,0,6.206,3.103,6.206,6.206V206.352z"/>
<rect x="299.442" y="75.248" style="fill:#FFFFFF;" width="117.915" height="117.915"/>
<path style="fill:#FDBF5E;" d="M203.248,49.648H59.733c-6.982,0-13.188,6.206-13.188,13.188v143.515
	c0,6.982,5.43,12.412,12.412,12.412h143.515c6.982,0,12.412-5.43,12.412-12.412V62.836C216.436,55.855,210.23,49.648,203.248,49.648
	z"/>
<path style="fill:#193651;" d="M203.248,43.442H59.733c-10.861,0-19.394,8.533-19.394,19.394v143.515
	c0,10.861,8.533,19.394,19.394,19.394h143.515c10.861,0,19.394-8.533,19.394-19.394V62.836
	C222.642,51.976,214.109,43.442,203.248,43.442z M210.23,206.352c0,3.879-3.103,6.206-6.206,6.206H60.509
	c-3.879,0-6.206-3.103-6.206-6.206V62.836c0-3.879,3.103-6.206,6.206-6.206h143.515c3.879,0,6.206,3.103,6.206,6.206V206.352z"/>
<rect x="72.145" y="75.248" style="fill:#FFFFFF;" width="117.915" height="117.915"/>
<path style="fill:#2EA2DB;" d="M203.248,276.945H59.733c-6.982,0-12.412,5.43-12.412,12.412v143.515
	c0,6.982,5.43,12.412,12.412,12.412h143.515c6.982,0,12.412-5.43,12.412-12.412V290.133
	C216.436,282.376,210.23,276.945,203.248,276.945z"/>
<path style="fill:#193651;" d="M203.248,453.042H59.733c-10.861,0-19.394-8.533-19.394-19.394V290.133
	c0-10.861,8.533-19.394,19.394-19.394h143.515c10.861,0,19.394,8.533,19.394,19.394v143.515
	C222.642,444.509,214.109,453.042,203.248,453.042z M59.733,283.152c-1.552,0-3.103,0.776-4.655,1.552
	c-1.552,1.552-1.552,3.103-1.552,4.655v143.515c0,3.879,3.103,6.206,6.206,6.206h143.515c3.879,0,6.206-3.103,6.206-6.206V290.133
	c0-3.879-3.103-6.206-6.206-6.206L59.733,283.152z"/>
<rect x="72.145" y="302.545" style="fill:#FFFFFF;" width="117.915" height="117.915"/>
<path style="fill:#F16051;" d="M430.545,276.945H287.03c-6.982,0-12.412,5.43-12.412,12.412v143.515
	c0,6.982,5.43,12.412,12.412,12.412h143.515c6.982,0,12.412-5.43,12.412-12.412V290.133
	C442.958,283.152,437.527,276.945,430.545,276.945z"/>
<path style="fill:#193651;" d="M430.545,453.042H286.255c-10.861,0-19.394-8.533-19.394-19.394V290.133
	c0-10.861,8.533-19.394,19.394-19.394H429.77c10.861,0,19.394,8.533,19.394,19.394v143.515
	C449.939,444.509,441.406,453.042,430.545,453.042z M286.255,283.152c-3.879,0-6.206,3.103-6.206,6.206v143.515
	c0,3.879,3.103,6.206,6.206,6.206H429.77c3.879,0,6.206-3.103,6.206-6.206V290.133c0-3.879-3.103-6.206-6.206-6.206L286.255,283.152
	z"/>
<rect x="299.442" y="302.545" style="fill:#FFFFFF;" width="117.915" height="117.915"/>
<g>
	<path style="fill:#193651;" d="M137.309,104.727h-11.636l-26.376,58.958l-0.776,0.776h11.636l6.206-13.188h28.703l6.206,13.188
		h11.636L137.309,104.727L137.309,104.727z M141.188,141.188h-19.394l10.085-21.721L141.188,141.188z"/>
	<path style="fill:#193651;" d="M378.57,159.03c3.103-3.103,4.655-6.982,4.655-11.636c0-3.879-0.776-6.982-3.103-10.085
		c-1.552-2.327-4.655-3.879-6.982-4.655c0,0,0,0,0.776,0c0.776,0,0.776-0.776,2.327-1.552c3.103-2.327,4.655-6.206,4.655-10.861
		c0-3.879-1.552-7.758-3.879-10.861c-1.552-1.552-3.879-3.103-6.982-3.879c-3.103-0.776-6.206-1.552-10.861-1.552h-23.273v59.733
		h26.376C369.261,164.461,374.691,162.909,378.57,159.03z M370.812,146.618c0,3.103-0.776,4.655-2.327,6.206
		c-1.552,0.776-4.655,1.552-7.758,1.552h-14.739v-14.739h13.964C366.933,139.636,370.812,141.964,370.812,146.618z M357.624,128.776
		h-11.636v-13.964H358.4c3.879,0,6.206,0.776,7.758,1.552s2.327,3.103,2.327,5.43C367.709,127.224,364.606,128.776,357.624,128.776z
		"/>
	<path style="fill:#193651;" d="M135.758,341.333c3.103,0,6.206,0.776,8.533,1.552s4.655,3.103,7.758,5.43l0.776,0.776l6.982-7.758
		h-0.776c-6.206-6.982-13.964-10.085-23.273-10.085s-17.067,3.103-23.273,9.309c-6.206,6.206-9.309,13.188-9.309,22.497
		c0,8.533,3.103,16.291,9.309,22.497c6.206,5.43,13.188,8.533,22.497,8.533s17.067-3.879,23.273-10.861l0.776-0.776l-6.982-7.758
		l-0.776,0.776c-2.327,2.327-5.43,4.655-7.758,5.43c-2.327,0.776-5.43,1.552-8.533,1.552c-5.43,0-10.085-2.327-13.964-6.206
		c-3.879-3.879-6.206-8.533-6.206-14.739c0-5.43,2.327-10.861,6.206-13.964C124.897,343.661,130.327,341.333,135.758,341.333z"/>
	<path style="fill:#193651;" d="M377.018,339.782c-5.43-5.43-13.964-7.758-24.824-7.758h-20.945v59.733h20.17
		c11.636,0,20.17-3.103,25.6-8.533c5.43-5.43,8.533-13.188,8.533-22.497C385.552,352.194,382.448,344.436,377.018,339.782z
		 M342.885,342.109h9.309c15.515,0,22.497,6.206,22.497,19.394c0,6.206-1.552,11.636-5.43,14.739
		c-3.879,3.103-9.309,4.655-16.291,4.655h-10.085L342.885,342.109L342.885,342.109z"/>
</g>
<g>
</g>
<g>
</g>
<g>
</g>
<g>
</g>
<g>
</g>
<g>
</g>
<g>
</g>
<g>
</g>
<g>
</g>
<g>
</g>
<g>
</g>
<g>
</g>
<g>
</g>
<g>
</g>
<g>
</g>
</svg>
