<?xml version="1.0" encoding="iso-8859-1"?>
<!-- Generator: Adobe Illustrator 19.0.0, SVG Export Plug-In . SVG Version: 6.00 Build 0)  -->
<svg version="1.1" id="Capa_1" xmlns="http://www.w3.org/2000/svg" xmlns:xlink="http://www.w3.org/1999/xlink" x="0px" y="0px"
	 viewBox="0 0 496.485 496.485" style="enable-background:new 0 0 496.485 496.485;" xml:space="preserve">
<circle style="fill:#F16051;" cx="257.157" cy="293.236" r="203.248"/>
<path style="fill:#E1E6E9;" d="M431.703,145.067c1.552-6.982,3.103-13.964,3.103-20.945c0-44.218-35.685-80.679-80.679-80.679
	c-17.067,0-33.358,5.43-46.545,14.739c-20.945-31.03-55.855-50.424-96.194-50.424c-59.733,0-108.606,44.994-115.588,102.4
	c-43.442,3.879-78.352,41.115-78.352,86.109c0,48.097,38.788,86.885,86.885,86.885h304.873c39.564,0,70.594-31.806,70.594-70.594
	C479.8,180.752,459.63,154.376,431.703,145.067z"/>
<path style="fill:#193651;" d="M409.206,290.133H104.333c-51.976,0-94.642-41.891-94.642-93.867
	c0-47.321,34.133-86.109,79.903-93.091C99.679,44.218,150.879,0,211.388,0c38.788,0,74.473,17.842,97.745,48.097
	c13.188-7.758,28.703-12.412,44.994-12.412c48.097,0,87.661,39.564,87.661,87.661c0,5.43-0.776,10.861-1.552,17.067
	c27.927,12.412,46.545,40.339,46.545,71.37C487.557,255.224,451.873,290.133,409.206,290.133z M211.388,14.739
	c-55.079,0-101.624,41.115-107.83,96.194c-0.776,3.103-3.103,6.206-6.982,6.206c-41.115,3.879-72.145,38.012-72.145,79.127
	c0,43.442,35.685,79.127,79.127,79.127H408.43c34.909,0,63.612-28.703,63.612-63.612c0-27.152-17.067-51.2-42.667-60.509
	c-3.879-1.552-5.43-5.43-4.655-8.533c1.552-6.206,2.327-13.188,2.327-19.394c0-40.339-32.582-72.921-72.921-72.921
	c-15.515,0-29.479,4.655-42.667,13.188c-1.552,0.776-3.879,1.552-5.43,1.552c-2.327,0-3.879-1.552-4.655-3.103
	C281.206,32.582,247.848,14.739,211.388,14.739z"/>
<path style="fill:#FFFFFF;" d="M104.333,253.673c-34.133,0-60.509-28.703-57.406-62.836c3.103-27.927,26.376-48.873,54.303-51.2
	l10.085-0.776c6.982-0.776,12.412-6.206,13.188-13.188l0.776-9.309c4.655-37.236,31.03-69.042,67.491-77.576
	c35.685-7.758,70.594,6.982,90.764,35.685l8.533,12.412c4.655,6.982,13.964,8.533,20.945,3.879l12.412-8.533
	c8.533-6.206,18.618-9.309,29.479-9.309c27.927,0,51.2,23.273,51.2,51.2c0,4.655-0.776,9.309-1.552,13.188l-3.879,13.188
	c-2.327,7.758,2.327,15.515,9.309,17.842l11.636,3.879c15.515,5.43,27.927,19.394,29.479,35.685
	c2.327,24.824-17.067,45.77-41.115,45.77H104.333z"/>
<path style="fill:#4FBF9F;" d="M368.091,132.655H195.097l-87.661,88.436v94.642c0,12.412,10.085,21.721,21.721,21.721h238.933
	c12.412,0,21.721-10.085,21.721-21.721V155.152C389.812,142.739,380.503,132.655,368.091,132.655z"/>
<path style="fill:#193651;" d="M368.091,125.673H195.097c-2.327,0-3.879,0.776-5.43,2.327l-87.661,87.661
	c-1.552,1.552-2.327,3.103-2.327,5.43v94.642c0,16.291,13.188,29.479,29.479,29.479h238.933c16.291,0,29.479-13.188,29.479-29.479
	V155.152C397.57,138.861,384.382,125.673,368.091,125.673z M382.83,314.958c0,7.758-6.206,14.739-14.739,14.739H129.157
	c-7.758,0-14.739-6.206-14.739-14.739v-91.539l83.782-83.782h169.891c7.758,0,14.739,6.206,14.739,14.739L382.83,314.958
	L382.83,314.958z"/>
<g>
	<polygon style="fill:#FFFFFF;" points="360.333,162.133 195.097,162.133 136.915,221.091 136.915,307.976 360.333,307.976 	"/>
	<path style="fill:#FFFFFF;" d="M107.436,221.091l87.661-87.661v65.939c0,12.412-10.085,21.721-21.721,21.721H107.436z"/>
</g>
<path style="fill:#193651;" d="M198.2,125.673c-3.103-0.776-6.206-0.776-7.758,1.552l-88.436,88.436
	c-2.327,2.327-3.103,5.43-1.552,7.758c0.776,3.103,3.879,4.655,6.982,4.655h65.939c16.291,0,29.479-13.188,29.479-29.479v-65.939
	C202.854,129.552,200.527,127.224,198.2,125.673z M188.115,198.594c0,7.758-6.206,14.739-14.739,14.739h-48.097l62.836-62.836
	V198.594L188.115,198.594z"/>
<polygon style="fill:#FFFFFF;" points="289.739,382.448 289.739,243.588 225.351,243.588 225.351,382.448 195.873,382.448 
	257.157,462.352 319.218,382.448 "/>
<path style="fill:#193651;" d="M257.157,470.109c-2.327,0-4.655-0.776-6.206-3.103l-61.285-80.679
	c-1.552-2.327-2.327-5.43-0.776-7.758s3.879-3.879,6.206-3.879h22.497V243.588c0-3.879,3.103-6.982,6.982-6.982h65.164
	c3.879,0,6.982,3.103,6.982,6.982v131.103h21.721c3.103,0,5.43,1.552,6.206,3.879c1.552,2.327,0.776,5.43-0.776,7.758
	l-61.285,80.679C261.812,468.558,259.485,470.109,257.157,470.109z M210.612,389.43l46.545,61.285l46.545-61.285h-13.964
	c-3.879,0-6.982-3.103-6.982-6.982V250.57h-50.424v131.103c0,3.879-3.103,6.982-6.982,6.982h-14.739V389.43z"/>
<polyline style="fill:#FDBF5E;" points="289.739,373.915 289.739,243.588 225.351,243.588 225.351,373.915 "/>
<g>
	<path style="fill:#193651;" d="M289.739,380.897c-3.879,0-6.982-3.103-6.982-6.982V250.57h-50.424v123.345
		c0,3.879-3.103,6.982-6.982,6.982c-3.879,0-6.982-3.103-6.982-6.982V243.588c0-3.879,3.103-6.982,6.982-6.982h65.164
		c3.879,0,6.982,3.103,6.982,6.982v130.327C297.497,377.794,294.394,380.897,289.739,380.897z"/>
	<rect x="228.454" y="189.285" style="fill:#193651;" width="14.739" height="14.739"/>
</g>
<rect x="273.448" y="189.285" style="fill:#193651;" width="14.739" height="14.739"/>
<g>
	<rect x="319.218" y="189.285" style="fill:#193651;" width="14.739" height="14.739"/>
	<rect x="250.176" y="267.636" style="fill:#193651;" width="14.739" height="14.739"/>
	<rect x="250.176" y="304.097" style="fill:#193651;" width="14.739" height="14.739"/>
	<rect x="250.176" y="340.558" style="fill:#193651;" width="14.739" height="14.739"/>
</g>
<g>
</g>
<g>
</g>
<g>
</g>
<g>
</g>
<g>
</g>
<g>
</g>
<g>
</g>
<g>
</g>
<g>
</g>
<g>
</g>
<g>
</g>
<g>
</g>
<g>
</g>
<g>
</g>
<g>
</g>
</svg>
