<?xml version="1.0" encoding="iso-8859-1"?>
<!-- Generator: Adobe Illustrator 19.0.0, SVG Export Plug-In . SVG Version: 6.00 Build 0)  -->
<svg version="1.1" id="Capa_1" xmlns="http://www.w3.org/2000/svg" xmlns:xlink="http://www.w3.org/1999/xlink" x="0px" y="0px"
	 viewBox="0 0 496.485 496.485" style="enable-background:new 0 0 496.485 496.485;" xml:space="preserve">
<circle style="fill:#FDBF5E;" cx="307.2" cy="361.503" r="134.982"/>
<path style="fill:#E1E6E9;" d="M439.855,6.982H56.63c-11.636,0-20.945,9.309-20.945,20.945v79.903H460.8V27.152
	C460.8,16.291,451.491,6.982,439.855,6.982z"/>
<path style="fill:#193651;" d="M460.8,114.036H35.685c-3.879,0-6.982-3.103-6.982-6.982V27.152C28.703,12.412,41.115,0,56.63,0h384
	c14.739,0,27.152,12.412,27.152,27.152v79.903C467.782,110.933,464.679,114.036,460.8,114.036z M42.667,100.073h411.152V27.152
	c0-7.758-6.206-13.964-13.964-13.964H56.63c-7.758,0-13.964,6.206-13.964,13.964V100.073z"/>
<rect x="62.836" y="34.133" style="fill:#FFFFFF;" width="370.036" height="45.77"/>
<path style="fill:#2EA2DB;" d="M35.685,107.055v245.139c0,11.636,9.309,20.945,20.945,20.945h384
	c11.636,0,20.945-9.309,20.945-20.945V107.055H35.685z"/>
<path style="fill:#193651;" d="M460.8,100.073H35.685c-3.879,0-6.982,3.103-6.982,6.982v245.139
	c0,14.739,12.412,27.152,27.152,27.152h384c14.739,0,27.152-12.412,27.152-27.152V107.055
	C467.782,103.176,464.679,100.073,460.8,100.073z M453.818,352.194c0,7.758-6.206,13.964-13.964,13.964H56.63
	c-7.758,0-13.964-6.206-13.964-13.964V114.036h411.152V352.194z"/>
<rect x="62.836" y="134.982" style="fill:#FFFFFF;" width="370.036" height="210.23"/>
<g>
	<rect x="327.37" y="50.424" style="fill:#193651;" width="13.964" height="13.964"/>
	<rect x="364.606" y="50.424" style="fill:#193651;" width="13.964" height="13.964"/>
	<rect x="401.067" y="50.424" style="fill:#193651;" width="13.964" height="13.964"/>
</g>
<path style="fill:#E1E6E9;" d="M147.394,290.133c-38.788,0-70.594-31.806-70.594-70.594s31.806-70.594,70.594-70.594
	s70.594,31.806,70.594,70.594S186.182,290.133,147.394,290.133z"/>
<path style="fill:#FDBF5E;" d="M176.097,193.939c0,14.739-13.188,37.236-29.479,37.236s-29.479-22.497-29.479-37.236
	c0-14.739,13.188-27.152,29.479-27.152S176.097,179.976,176.097,193.939z"/>
<path style="fill:#193651;" d="M152.824,164.461c-12.412-2.327-18.618,3.879-19.394,5.43c0,0-0.776,0-0.776,0.776
	c-18.618-3.879-14.739,23.273-14.739,23.273c0,4.655,1.552,10.085,3.103,14.739c0-3.879,0.776-21.721,10.861-19.394
	c0,0,12.412,8.533,28.703,0c0,0,10.861-3.879,12.412,18.618C175.321,203.248,190.061,172.218,152.824,164.461z"/>
<path style="fill:#F16051;" d="M169.891,231.176h-44.218c-14.739,0-27.152,12.412-27.152,27.152v10.085
	c12.412,13.188,30.255,20.945,48.873,20.945c19.394,0,36.461-7.758,48.873-20.945v-10.085
	C197.042,243.588,184.63,231.176,169.891,231.176z"/>
<path style="fill:#FDBF5E;" d="M127.224,231.176l12.412,21.721c3.103,5.43,11.636,5.43,14.739,0l12.412-21.721H127.224z"/>
<g>
	<rect x="286.255" y="169.891" style="fill:#193651;" width="121.794" height="13.964"/>
	<rect x="286.255" y="212.558" style="fill:#193651;" width="121.794" height="13.964"/>
	<rect x="286.255" y="254.448" style="fill:#193651;" width="61.285" height="13.964"/>
</g>
<polygon style="fill:#F16051;" points="404.17,300.994 211.006,300.994 211.006,405.721 328.145,405.721 377.794,432.097 
	377.794,405.721 404.17,405.721 "/>
<path style="fill:#193651;" d="M374.691,438.303l-48.097-24.824H210.23c-3.879,0-6.982-3.103-6.982-6.982V300.994
	c0-3.879,3.103-6.982,6.982-6.982h193.164c3.879,0,6.982,3.103,6.982,6.982v105.503c0,3.879-3.103,6.982-6.982,6.982h-18.618v19.394
	c0,2.327-1.552,4.655-3.103,6.206C379.345,439.079,377.018,439.079,374.691,438.303z M217.988,398.739h110.933
	c0.776,0,2.327,0,3.103,0.776l39.564,20.945v-14.739c0-3.879,3.103-6.982,6.982-6.982h18.618v-90.764h-179.2V398.739z"/>
<rect x="237.382" y="328.145" style="fill:#FFFFFF;" width="140.412" height="50.424"/>
<g>
	<ellipse style="fill:#193651;" cx="269.964" cy="352.97" rx="8.533" ry="8.533"/>
	<ellipse style="fill:#193651;" cx="307.2" cy="352.97" rx="8.533" ry="8.533"/>
	<ellipse style="fill:#193651;" cx="345.212" cy="352.97" rx="8.533" ry="8.533"/>
</g>
<g>
</g>
<g>
</g>
<g>
</g>
<g>
</g>
<g>
</g>
<g>
</g>
<g>
</g>
<g>
</g>
<g>
</g>
<g>
</g>
<g>
</g>
<g>
</g>
<g>
</g>
<g>
</g>
<g>
</g>
</svg>
