<?xml version="1.0" encoding="UTF-8"?>
<svg width="2306px" height="446px" viewBox="0 0 2306 446" version="1.1" xmlns="http://www.w3.org/2000/svg" xmlns:xlink="http://www.w3.org/1999/xlink">
    <!-- Generator: Sketch 39.1 (31720) - http://www.bohemiancoding.com/sketch -->
    <title>A4 300dpi Copy 22</title>
    <desc>Created with Sketch.</desc>
    <defs></defs>
    <g id="Футболка" stroke="none" stroke-width="1" fill="none" fill-rule="evenodd">
        <g id="A4-300dpi-Copy-22">
            <g id="Staminity/Logo/Color">
                <g id="Mark">
                    <path d="M262.130083,64.7726733 C262.163429,67.5985206 262.163429,70.4986346 262.163429,73.5584219 C262.163429,110.04193 225.760188,164.780189 189.356947,164.780189 C152.953705,164.780189 116.550464,110.04193 116.550464,73.5584219 C116.550464,70.4986346 116.550464,67.6022339 116.594926,64.7726733 C116.783889,16.8929424 120.581683,0.628538647 189.356947,0.628538647 C258.143326,0.628538647 261.930004,16.8929424 262.130083,64.7726733 L262.130083,64.7726733 Z" id="Head_2_" fill="#455A64"></path>
                    <path d="M282.604822,361.775048 C282.975338,361.782475 283.130955,362.224361 282.856773,362.465728 C279.414675,365.473529 264.88302,377.987465 246.798112,390.735341 C228.828064,403.405237 207.349225,416.29422 189.734873,420.330615 C189.497743,420.386315 189.253202,420.386315 189.016071,420.330615 C153.676212,412.228119 102.593109,368.462763 95.7163239,362.465728 C95.4384366,362.224361 95.605169,361.782475 95.9682751,361.775048 C122.1008,361.221761 163.335576,337.281896 188.886391,318.982585 C189.104995,318.826625 189.486627,318.826625 189.705232,318.982585 C215.241226,337.281896 256.483412,361.221761 282.604822,361.775048 L282.604822,361.775048 Z" id="Shape" fill="#455A64"></path>
                    <g id="Infinity_3_" transform="translate(0.000000, 156.277164)">
                        <g id="Shadow_2_" transform="translate(94.383742, 27.633716)" fill="#BF360C">
                            <path d="M188.880599,78.0014715 L188.865778,78.0163248 C179.821471,85.3390198 136.363597,120.519148 116.833675,136.152285 C116.818854,136.152285 116.818854,136.152285 116.807739,136.167138 C116.807739,136.167138 116.71511,136.100298 116.566903,136.003751 C112.665365,133.560377 108.774942,131.01303 104.925276,128.38399 C104.695556,128.220603 104.695556,127.886403 104.925276,127.723016 C121.102024,116.05572 134.481373,105.387311 141.895408,99.6539231 L175.690213,74.0133506 C175.812483,73.9205172 175.986626,73.9056639 176.120012,73.9725039 C180.521748,76.2116444 184.489979,77.6004314 187.854268,77.9383448 C188.221079,77.9717648 188.880599,78.0014715 188.880599,78.0014715 L188.880599,78.0014715 Z" id="Shape"></path>
                            <path d="M74.8022886,0.0140270311 C74.8022886,0.0140270311 81.6160862,4.42918137 84.8655154,6.65718188 C85.102646,6.82056858 85.102646,7.17333533 84.8692206,7.34043537 C68.707293,18.992878 55.327944,29.6612871 47.9139098,35.3798218 L14.1191043,61.0203943 C13.9968339,61.1132276 13.8263963,61.128081 13.6893052,61.0575276 C8.63546083,58.4767604 4.21519957,57.01742 0.54338154,57.01742 L0.524855717,57.01742 C0.39517496,57.01742 0.265494202,57.01742 0.146928937,57.0248467 C12.8260019,47.3478978 74.8022886,0.0140270311 74.8022886,0.0140270311 L74.8022886,0.0140270311 Z" id="Shape"></path>
                        </g>
                        <path d="M283.812705,189.80162 C259.962561,189.786767 235.063856,178.739598 211.187776,163.793428 C230.743634,148.145437 274.201509,112.965309 283.245815,105.642614 C289.600172,105.657468 294.298321,100.94896 294.298321,95.148732 C294.298321,89.348504 289.600172,84.6548496 283.812705,84.6548496 C252.49295,84.6548496 167.944801,189.786767 94.9271239,189.786767 C42.7732283,189.786767 0.497301218,147.432477 0.497301218,95.1524454 C0.497301218,42.8835534 42.7732283,0.514410457 94.9271239,0.514410457 C119.207067,0.514410457 144.754176,12.1297198 169.182326,27.65517 C148.522329,43.4108469 107.257911,74.9481941 94.5380816,84.658563 C88.9247574,84.8627964 84.4303928,89.4858974 84.4303928,95.1524454 C84.4303928,100.952673 89.1285414,105.661181 94.9160084,105.661181 C126.076442,105.661181 210.624591,0.518123792 283.627447,0.518123792 C335.970306,0.514410457 378.242528,42.8835534 378.242528,95.1524454 C378.242528,147.436191 335.966601,189.80162 283.812705,189.80162 Z" id="Infinity_4_" fill="#E74C1C"></path>
                    </g>
                </g>
            </g>
            <g id="Staminity/Logo/Typo" transform="translate(527.000000, 88.000000)" fill="#455A64">
                <g id="Typography">
                    <path d="M92.5285919,265.588247 C43.2833413,265.588247 6.81670644,239.651459 0.80548926,197.936847 L51.1807637,197.936847 C57.9439141,214.474894 77.8680191,220.484482 92.5285919,220.484482 C112.452697,220.484482 127.49136,214.474894 127.49136,203.198953 C127.49136,192.296753 120.719714,187.790624 86.886969,182.528518 C52.3022912,177.262165 6.06052506,167.871918 6.06052506,124.653847 C6.06052506,94.2109294 32.7562768,62.6467882 88.7646778,62.6467882 C133.128735,62.6467882 166.209547,86.6978824 172.598854,123.150388 L121.097804,123.150388 C118.090072,114.133882 107.184916,106.990329 88.7646778,106.990329 C65.8370883,106.990329 56.4357995,115.255106 56.4357995,122.398659 C56.4357995,132.549129 70.7225298,135.929788 94.7801432,139.688435 C142.899618,147.575224 177.484296,158.103682 177.484296,200.192035 C177.488544,238.525988 142.151933,265.588247 92.5285919,265.588247 L92.5285919,265.588247 Z" id="Shape"></path>
                    <path d="M379.354988,180.269082 C379.354988,229.127247 346.274177,265.584 294.395036,265.584 C242.520143,265.584 209.061241,229.127247 209.061241,180.269082 L209.061241,18.2905059 L258.684582,18.2905059 L258.684582,67.5266588 L377.477279,67.5266588 L377.477279,114.129635 L258.684582,114.129635 L258.684582,182.906506 C258.684582,200.570024 269.581241,218.607282 294.395036,218.607282 C318.834988,218.607282 329.731647,200.570024 329.731647,182.906506 L329.731647,164.491259 L379.354988,164.491259 L379.354988,180.269082 L379.354988,180.269082 Z" id="Shape"></path>
                    <path d="M603.783675,261.073624 L556.416134,261.073624 L556.416134,240.403188 C541.37747,256.189506 520.701432,265.206012 497.021909,265.206012 C446.646635,265.206012 404.920716,221.6142 404.920716,164.491259 C404.920716,106.990329 446.646635,63.3900235 497.021909,63.3900235 C520.701432,63.3900235 541.37747,72.4150235 556.416134,88.1928471 L556.416134,67.5266588 L603.783675,67.5266588 L603.783675,261.073624 L603.783675,261.073624 Z M504.536993,109.245518 C477.097804,109.245518 454.913652,133.296612 454.913652,164.865 C454.913652,195.677412 477.093556,219.359012 504.536993,219.359012 C531.984678,219.359012 554.160334,194.925682 554.160334,164.865 C554.160334,134.048341 531.984678,109.245518 504.536993,109.245518 L504.536993,109.245518 Z" id="Shape"></path>
                    <path d="M946.253126,261.111847 L896.629785,261.111847 L896.629785,147.991435 C896.629785,136.715494 892.870119,109.657482 860.541241,109.657482 C838.361337,109.657482 822.948831,126.195529 822.948831,147.991435 L822.948831,261.111847 L772.951647,261.111847 L772.951647,147.991435 C772.951647,136.715494 769.570072,109.657482 736.863103,109.657482 C715.061289,109.657482 699.644535,126.195529 699.644535,147.991435 L699.644535,261.111847 L649.647351,261.111847 L649.647351,67.5648824 L697.392983,67.5648824 L697.392983,86.3538706 C709.423914,71.6972706 726.340286,62.6807647 747.390167,62.6807647 C771.44778,62.6807647 791.745728,72.8227412 805.280525,90.1125176 C819.193413,73.2007294 839.49136,62.6807647 864.305155,62.6807647 C916.180048,62.6807647 946.257375,97.2560706 946.257375,147.991435 L946.257375,261.111847 L946.253126,261.111847 Z" id="Shape"></path>
                    <rect id="Rectangle-path" x="990.986778" y="0.253247059" width="49.6148449" height="46.2207412"></rect>
                    <rect id="Rectangle-path" x="990.986778" y="67.8834118" width="49.6148449" height="193.546965"></rect>
                    <path d="M1260.14487,261.073624 L1210.52153,261.073624 L1210.52153,147.953212 C1210.52153,136.677271 1207.13995,109.619259 1174.43298,109.619259 C1152.25308,109.619259 1136.84057,126.157306 1136.84057,147.953212 L1136.84057,261.073624 L1087.21723,261.073624 L1087.21723,67.5266588 L1134.58477,67.5266588 L1134.58477,86.3156471 C1146.99379,71.6590471 1163.91017,62.6425412 1184.58621,62.6425412 C1230.06754,62.6425412 1260.14487,96.8398588 1260.14487,147.953212 L1260.14487,261.073624 L1260.14487,261.073624 Z" id="Shape"></path>
                    <path d="M1354.8757,46.4782353 L1305.26086,46.4782353 L1305.26086,0.257494118 L1354.8757,0.257494118 L1354.8757,46.4782353 L1354.8757,46.4782353 Z M1354.8757,261.073624 L1305.26086,261.073624 L1305.26086,67.5266588 L1354.8757,67.5266588 L1354.8757,261.073624 L1354.8757,261.073624 Z" id="Shape"></path>
                    <path d="M1569.15542,180.269082 C1569.15542,229.127247 1536.07461,265.584 1484.19547,265.584 C1432.32057,265.584 1398.86167,229.127247 1398.86167,180.269082 L1398.86167,18.2905059 L1448.48501,18.2905059 L1448.48501,67.5266588 L1567.27771,67.5266588 L1567.27771,114.129635 L1448.48501,114.129635 L1448.48501,182.906506 C1448.48501,200.570024 1459.38167,218.607282 1484.19547,218.607282 C1508.63542,218.607282 1519.53208,200.570024 1519.53208,182.906506 L1519.53208,164.491259 L1569.15542,164.491259 L1569.15542,180.269082 L1569.15542,180.269082 Z" id="Shape"></path>
                    <path d="M1777.41967,268.968906 C1777.41967,321.207729 1743.20883,355.783035 1691.33394,355.783035 C1648.85609,355.783035 1613.88907,327.969047 1607.12592,288.135882 L1658.62697,288.135882 C1661.6347,302.418741 1674.41332,309.5538 1691.33394,309.5538 C1718.39504,309.5538 1727.79632,290.391071 1727.79632,272.349565 L1727.79632,249.801929 C1716.13924,259.570165 1701.10907,265.588247 1683.44076,265.588247 C1636.07322,265.588247 1604.49203,231.386682 1604.49203,180.651318 L1604.49203,67.5309059 L1654.11537,67.5309059 L1654.11537,180.651318 C1654.11537,191.545024 1657.87504,218.607282 1690.20391,218.607282 C1712.38382,218.607282 1727.79632,202.447224 1727.79632,180.651318 L1727.79632,67.5309059 L1777.41967,67.5309059 L1777.41967,268.968906 L1777.41967,268.968906 Z" id="Shape"></path>
                </g>
            </g>
        </g>
    </g>
</svg>